<svg width="61" height="25" viewBox="0 0 61 25" fill="none" xmlns="http://www.w3.org/2000/svg">
<g id="Group 3284">
<path id="Vector" fill-rule="evenodd" clip-rule="evenodd" d="M7.46527 16.8044H15.057V13.9489H4.72334L4.61426 13.9482V24.1145H7.38522V16.8468L7.46527 16.8044Z" fill="white"/>
<path id="Vector_2" fill-rule="evenodd" clip-rule="evenodd" d="M4.6149 3.96928L25.3604 3.96673L25.4044 3.94727C29.8824 3.98905 33.4988 7.61988 33.4988 12.0924C33.4988 16.5713 29.8709 20.2059 25.3818 20.2366L25.3103 20.2334L20.235 20.2283V9.9456H23.1001V17.4315L23.3393 17.4251H25.3158L25.4258 17.4238C28.3253 17.3651 30.6574 15.005 30.6574 12.102C30.6574 9.18333 28.3017 6.81328 25.3815 6.77819H7.45475L7.38554 6.77979V9.88787L7.38777 9.94369L15.0369 9.94624L15.0446 12.8017L4.64583 12.7998L4.61426 12.7979L4.6149 3.96928ZM46.1653 0.227783L58.6987 21.3551L60.4889 18.3899L49.3815 0.227783H46.1653ZM33.3036 24.1158L46.1551 2.70404L56.7557 20.2442H42.1453V17.5083H51.63L46.1551 8.37481L37.1826 24.1158H33.3036Z" fill="white"/>
<path id="Vector_3" fill-rule="evenodd" clip-rule="evenodd" d="M58.6972 21.3552L42.1439 21.3507V24.116L57.07 24.1102L57.0923 24.0448L58.6972 21.3552ZM16.1773 21.2653L16.1891 9.94509H19.0541V21.2653L19.0535 21.2876H25.3149L25.3806 21.2895C30.4534 21.2541 34.5547 17.1452 34.5547 12.0814C34.5547 7.02646 30.4649 2.92169 25.403 2.87417L25.3149 2.8764L3.58898 2.87576L3.58834 24.1144H0.817383L0.81834 0.117562L25.3149 0.115967H25.4256C31.2514 0.168592 36.0878 4.21564 37.1333 9.73172L42.9482 0.227597H46.1638L36.1918 16.9315L35.2244 18.5661C33.0796 21.7092 29.5189 24.0503 25.4256 24.0873L25.3149 24.0879H16.1773V21.2653Z" fill="white"/>
</g>
</svg>
