<svg xmlns="http://www.w3.org/2000/svg" width="24" height="25" viewBox="0 0 24 25" fill="none">
  <path d="M21.8182 0.286377H2.18182C0.976364 0.286377 0 1.26274 0 2.4682V22.1046C0 23.31 0.976364 24.2864 2.18182 24.2864H21.8182C23.0236 24.2864 24 23.31 24 22.1046V2.4682C24 1.26274 23.0236 0.286377 21.8182 0.286377ZM7.58618 19.9227H4.368V9.56783H7.58618V19.9227ZM5.94436 8.08747C4.90691 8.08747 4.068 7.24638 4.068 6.2111C4.068 5.17583 4.908 4.33583 5.94436 4.33583C6.97855 4.33583 7.81964 5.17692 7.81964 6.2111C7.81964 7.24638 6.97855 8.08747 5.94436 8.08747ZM19.6407 19.9227H16.4247V14.8871C16.4247 13.686 16.4029 12.1413 14.7524 12.1413C13.0778 12.1413 12.8204 13.4493 12.8204 14.7998V19.9227H9.60436V9.56783H12.6916V10.9827H12.7353C13.1651 10.1689 14.2145 9.31038 15.78 9.31038C19.0385 9.31038 19.6407 11.4551 19.6407 14.2435V19.9227Z" fill="white"/>
</svg>
