<svg width="20" height="20" viewBox="0 0 20 20" fill="none" xmlns="http://www.w3.org/2000/svg">
<g id="Medico/Line/Ambulance - Fast">
<g id="Group 3295">
<path id="Vector" d="M15.8378 15.6757V15.6757C17.032 15.6757 18 14.7076 18 13.5135V11.7838M15.8378 15.6757C15.8378 16.3922 15.257 16.973 14.5405 16.973C13.8241 16.973 13.2432 16.3922 13.2432 15.6757M15.8378 15.6757C15.8378 14.9592 15.257 14.3784 14.5405 14.3784C13.8241 14.3784 13.2432 14.9592 13.2432 15.6757M16.7387 7.89189L15.8817 6.42273C15.5612 5.87325 15.4009 5.59851 15.181 5.39541C14.9604 5.1918 14.6969 5.04043 14.4099 4.95254C14.1236 4.86486 13.8056 4.86486 13.1694 4.86486V4.86486M16.7387 7.89189L17.4551 9.11997C17.726 9.58427 17.8614 9.81641 17.9307 10.0728C18 10.3292 18 10.5979 18 11.1355V11.7838M16.7387 7.89189H15.4054C15.1666 7.89189 14.973 8.0855 14.973 8.32432V10.9189C14.973 11.3966 15.3602 11.7838 15.8378 11.7838H18M2 11.3514V13.0811C2 14.514 3.16164 15.6757 4.59459 15.6757H5.89189M2 11.3514V6.16216C2 4.96803 2.96803 4 4.16216 4H11.9459C12.5108 4 12.9913 4.361 13.1694 4.86486M2 11.3514H11.9459C12.6624 11.3514 13.2432 10.7705 13.2432 10.0541V5.2973C13.2432 5.14567 13.2172 5.00012 13.1694 4.86486M13.2432 15.6757H8.48649M8.48649 15.6757C8.48649 16.3922 7.90567 16.973 7.18919 16.973C6.47271 16.973 5.89189 16.3922 5.89189 15.6757M8.48649 15.6757C8.48649 14.9592 7.90567 14.3784 7.18919 14.3784C6.47271 14.3784 5.89189 14.9592 5.89189 15.6757" stroke="#4B5563" stroke-linecap="round"/>
</g>
</g>
</svg>
