<svg width="20" height="20" viewBox="0 0 20 20" fill="none" xmlns="http://www.w3.org/2000/svg">
<g id="Medico/Line/Ambulance - Fast">
<g id="Group 3294">
<path id="Vector" d="M8 12V3.91063C8 2.85542 8.89543 2 10 2C11.1046 2 12 2.85542 12 3.91063V12" stroke="#4B5563"/>
<path id="Vector_2" d="M19 10.4999C19 11.3283 14.709 11.9999 10 11.9999C5.29105 11.9999 1 11.3283 1 10.4999M19 10.4999C19 10.4999 17.1053 17.4999 10 17.4999C2.89474 17.4999 1 10.4999 1 10.4999M19 10.4999C19 9.78455 15.8003 9.18614 11.8947 9.03613M1 10.4999C1 9.78455 4.19974 9.18614 8.10526 9.03613" stroke="#4B5563"/>
</g>
</g>
</svg>
