<svg width="20" height="20" viewBox="0 0 20 20" fill="none" xmlns="http://www.w3.org/2000/svg">
<g id="Medico/Line/Ambulance - Fast">
<g id="Group 3290">
<path id="Vector" d="M14.6545 5.3455L16.4514 7.14237M14.6545 5.3455L12.8576 3.54863M14.6545 5.3455L16.4513 3.54864M12.1389 2.82988C12.4196 3.11057 12.8576 3.54863 12.8576 3.54863M17.1701 7.86112C16.8894 7.58043 16.4514 7.14237 16.4514 7.14237M16.4514 7.14237L12.8576 10.7361M12.8576 3.54863L9.26387 7.14237M7.467 14.6892L7.47864 14.7009C7.86917 15.0914 8.50233 15.0914 8.89286 14.7009L12.8576 10.7361M7.467 14.6892L7.10763 15.0486C6.5122 15.644 5.54681 15.644 4.95138 15.0486V15.0486V15.0486C4.35595 14.4532 4.35595 13.4878 4.95138 12.8924L5.31076 12.533M7.467 14.6892L5.31076 12.533M5.31076 12.533L5.29911 12.5213C4.90859 12.1308 4.90859 11.4977 5.29911 11.1071L9.26387 7.14237M9.26387 7.14237L12.8576 10.7361M16.4513 3.54864L15.7523 2.84962C15.7395 2.83682 15.7313 2.82018 15.7288 2.80225C15.7266 2.78647 15.7457 2.77697 15.757 2.78823L17.2117 4.243C17.223 4.25426 17.2135 4.27338 17.1977 4.2712C17.1798 4.26872 17.1632 4.26046 17.1504 4.24766L16.4513 3.54864Z" stroke="#4B5563" stroke-linecap="round"/>
<path id="Vector_2" d="M2.00004 18.0002L4.95166 15.0486" stroke="#4B5563" stroke-linecap="round"/>
<g id="Group">
<path id="Vector_3" d="M9.26367 13.6111L8.54492 12.8923" stroke="#4B5563" stroke-linecap="round"/>
<path id="Vector_4" d="M10.3417 12.533L9.62292 11.8142" stroke="#4B5563" stroke-linecap="round"/>
<path id="Vector_5" d="M11.4203 11.4548L10.7015 10.7361" stroke="#4B5563" stroke-linecap="round"/>
</g>
</g>
</g>
</svg>
